<?xml version="1.0" encoding="UTF-8"?>
<svg id="Layer_1" data-name="Layer 1" xmlns="http://www.w3.org/2000/svg" viewBox="0 0 540 540">
  <defs>
    <style>
      .cls-1 {
        fill: #000;
        stroke-width: 0px;
      }
    </style>
  </defs>
  <path class="cls-1" d="M87.26,76.63c0-4.91-.09-9.02.02-13.13.65-25.02,17.18-45.49,40.64-50.38,23.88-4.98,46.98,6.61,57.19,29.78,3.01,6.83,3.47,14.84,4.69,22.38.55,3.4.09,6.97.09,11.32,3.06,0,5.48,0,7.9,0,47.92,0,95.84,0,143.76,0q8.46,0,8.45-8.38c-.05-25.01,11.14-43.56,31.49-52.16,32.82-13.89,69.1,9.13,71,45.12.25,4.76.03,9.55.03,15.43,3.8,0,7.24-.1,10.67.02,10.6.37,21.44-.45,31.75,1.49,24.33,4.58,41.83,24.67,44.6,49.32.32,2.89.43,5.82.43,8.73.02,110.82.04,221.63,0,332.45,0,25.08-10.91,43.91-33.93,54.25-7.52,3.38-16.51,4.89-24.83,4.91-140.85.28-281.69.29-422.54.11C23.57,527.85.04,503.73.03,468.66,0,357.64-.01,246.61.02,135.59c.01-34.2,23.54-58.14,57.86-58.92,9.52-.22,19.05-.03,29.38-.03ZM28.99,216.57c0,2.9,0,4.94,0,6.98,0,81.04,0,162.08.01,243.12,0,22.2,9.9,32.14,31.95,32.14,139.41,0,278.82,0,418.23,0,21.5,0,31.71-10.24,31.71-31.79.01-81.25-.06-162.5.14-243.75.01-5.77-1.87-6.81-7.16-6.8-153.37.13-306.74.1-460.11.1-4.56,0-9.11,0-14.78,0ZM189.81,106.1c0,4.26.17,8.16-.03,12.04-1.16,22.8-16.59,42.3-38.02,48.17-21.07,5.77-43.17-2.61-55.75-21.18-6.55-9.66-9.38-20.47-8.66-31.99.38-6.2-1.82-7.92-7.73-7.52-7.26.49-14.58.01-21.87.16-17.84.38-28.6,11.26-28.73,29.15-.12,16.04-.07,32.08-.04,48.12,0,1.37.37,2.74.55,3.94h480.94c0-19.59.77-38.75-.26-57.81-.73-13.49-11.58-22.59-25.13-23.25-8.73-.43-17.51.07-26.24-.3-4.93-.21-7.03,1.36-6.22,6.36.2,1.22.03,2.49.01,3.74-.48,29.31-22.93,52.35-51.08,52.44-28.4.09-51.07-23.08-51.5-52.67-.04-3.05,0-6.09,0-9.41h-160.21ZM116.32,89.82h-.02c0,8.53,0,17.06,0,25.59,0,.42,0,.83.03,1.25.72,13.26,9.68,22.22,22.18,22.16,12.43-.06,21.93-9.13,22.21-22.21.37-17.67.4-35.37-.02-53.04-.32-13.56-9.8-22.58-22.53-22.5-12.6.08-21.51,9.43-21.81,23.16-.18,8.53-.03,17.06-.03,25.59ZM379.05,89.75c0,8.95-.29,17.91.07,26.84.53,13.17,9.76,22.18,22.2,22.24,12.35.05,22.06-9.22,22.28-22.14.31-17.68.32-35.37-.02-53.05-.25-13.43-9.86-22.7-22.5-22.58-12.52.12-21.76,9.72-22.01,23.11-.16,8.53-.03,17.06-.02,25.59Z"/>
  <g>
    <rect class="cls-1" x="85.16" y="246.86" width="49.21" height="49.21" rx="15.87" ry="15.87"/>
    <rect class="cls-1" x="191.99" y="246.86" width="49.21" height="49.21" rx="15.87" ry="15.87"/>
    <rect class="cls-1" x="298.81" y="246.86" width="49.21" height="49.21" rx="15.87" ry="15.87"/>
    <rect class="cls-1" x="405.63" y="246.86" width="49.21" height="49.21" rx="15.87" ry="15.87"/>
    <rect class="cls-1" x="85.16" y="333.09" width="49.21" height="49.21" rx="15.87" ry="15.87"/>
    <rect class="cls-1" x="191.99" y="333.09" width="49.21" height="49.21" rx="15.87" ry="15.87"/>
    <rect class="cls-1" x="298.81" y="333.09" width="49.21" height="49.21" rx="15.87" ry="15.87"/>
    <rect class="cls-1" x="405.63" y="333.09" width="49.21" height="49.21" rx="15.87" ry="15.87"/>
    <rect class="cls-1" x="85.16" y="419.32" width="49.21" height="49.21" rx="15.87" ry="15.87"/>
    <rect class="cls-1" x="191.99" y="419.32" width="49.21" height="49.21" rx="15.87" ry="15.87"/>
    <rect class="cls-1" x="298.81" y="419.32" width="49.21" height="49.21" rx="15.87" ry="15.87"/>
    <rect class="cls-1" x="405.63" y="419.32" width="49.21" height="49.21" rx="15.87" ry="15.87"/>
  </g>
</svg>