<?xml version="1.0" encoding="UTF-8"?>
<svg id="Layer_1" data-name="Layer 1" xmlns="http://www.w3.org/2000/svg" viewBox="0 0 540 540">
  <defs>
    <style>
      .cls-1 {
        fill: #000;
        stroke-width: 0px;
      }
    </style>
  </defs>
  <path class="cls-1" d="M539.98,195.94v-56.33c.03-9.27-1.96-18.21-5.91-26.57-6.91-14.61-17.76-25.01-32.26-30.9-6.54-2.66-13.73-3.95-21.99-3.95h-.03c-54.44.02-108.88.02-163.32.02H61.89s-.8,0-.8,0c-.9,0-1.79,0-2.69,0-8.98.06-17.45,2.15-25.18,6.21-14.81,7.78-25.01,20.09-30.32,36.61C.92,127.19,0,133.86,0,142c.01,69,.01,138.01.01,207.01v49.03s0,.45,0,.45c0,.44,0,.88,0,1.32.08,11.74,2.97,22.54,8.59,32.11,8.21,13.98,20,23.3,35.06,27.71,5.08,1.49,10.53,2.18,17.15,2.18h.02c111.6,0,223.19-.01,334.79-.01h84.3c.83,0,1.65,0,2.48-.03,6.69-.25,12.59-1.38,18.05-3.46,16.25-6.19,27.99-17.76,34.9-34.38,3.13-7.53,4.65-15.56,4.65-24.55-.02-67.81-.02-135.63-.02-203.44ZM473.79,134.58l-6.76,4.79c-53.57,37.97-107.15,75.93-160.72,113.9-1.03.73-2.02,1.46-2.95,2.17-6.46,4.96-13.84,7.54-22.58,7.87-5.31.21-10.82-.51-16.86-2.17-7.28-2-14.05-4.95-20.12-8.76-51.32-32.23-102.64-64.45-153.97-96.67l-48.37-30.36c4.3-5.94,9.93-8.86,17.47-9.14.7-.03,1.4-.02,2.1-.02h.87s416.21,0,416.21,0h.71c2.4,0,4.66,0,6.65.46,3.12.73,5.85,1.98,8.25,3.77-6.65,4.73-13.3,9.44-19.96,14.15ZM224.51,284.7c12.63,7.94,26.23,13.17,40.4,15.55,13.79,2.32,26.92,1.39,39.02-2.76,6.65-2.28,13.02-5.58,18.96-9.82l7.08-5.06c7.24-5.17,14.48-10.35,21.74-15.49,50.59-35.87,101.19-71.72,151.79-107.57v51.2c0,62.48,0,124.95,0,187.43,0,2.9-.14,6.28-1.2,9.29-2.76,7.87-7.71,12.89-15.14,15.33-1.55.51-2.98.78-4.39.82-1.2.03-2.4.06-3.59.06-139.4,0-278.8,0-418.2-.02h-.12c-2.15,0-4.18,0-5.9-.37-8.34-1.81-13.94-6.88-17.13-15.51-.82-2.22-1.25-4.73-1.36-7.91-.02-.55-.01-1.09-.01-1.64v-27.02c0-68.19,0-136.38,0-204.57l50.59,31.76c45.81,28.76,91.63,57.51,137.42,86.29Z"/>
</svg>