<?xml version="1.0" encoding="UTF-8"?>
<svg id="Layer_1" data-name="Layer 1" xmlns="http://www.w3.org/2000/svg" viewBox="0 0 540 540">
  <defs>
    <style>
      .cls-1 {
        fill: #000;
        stroke-width: 0px;
      }
    </style>
  </defs>
  <path class="cls-1" d="M540,146.68h-41.63v-72.19c-23.02,23.24-46.03,46.47-69.61,70.28,26.59,37.51,34.64,80.64,21.88,127.16-8.09,29.51-29.86,61.04-47.53,71.53,0-14.28,1.28-29.19-.39-43.77-1.44-12.59,1.13-23.3,5.48-34.91,22.25-59.33-17.38-126.53-79.98-136.86-56.35-9.3-107.22,23.91-121.14,79.09-13.6,53.92,20.58,110.98,74.74,124.75,4.33,1.1,8.7,2.07,13.69,3.24-3.74,14.66-10.99,27.02-23.23,35.95-1.89,1.38-6.12.58-8.85-.39-49.88-17.79-82.77-51.93-96.38-103.23-19.03-71.75,20.15-147.59,89.62-173.44,47.53-17.69,92.98-12.22,135.54,15.66,1.67,1.09,3.34,2.17,4.48,2.9,23.28-23.38,46.29-46.49,69.81-70.11h-72.4V.51h145.9v146.17Z"/>
  <path class="cls-1" d="M132.08,201.69c0,16.54-.97,32.76.36,48.79.8,9.6-.52,17.75-4.24,26.53-25.34,59.82,13.51,129.82,77.92,141.1,55.15,9.66,107.28-22.75,120.89-76.56,16.08-63.56-26.5-121.26-85.38-129.57-.64-.09-1.25-.44-2.46-.88,3.99-14.56,11.24-26.93,23.38-35.96,1.74-1.29,5.67-.6,8.2.27,49.63,17.15,82.85,50.8,96.47,101.43,19.24,71.56-15.18,143.07-82.91,172.71-47.5,20.79-94.08,16.35-138.38-10.76-2.69-1.65-5.24-3.52-7.77-5.24-11.43,11.83-22.8,23.61-34.6,35.83,12.67,12.33,26.64,25.94,40.41,39.35-10.8,10.76-20.46,20.39-30.86,30.76-13.3-13.59-26.98-27.57-41.39-42.3-14.1,14.44-27.63,28.31-40.94,41.95-9.91-9.85-19.58-19.47-29.64-29.46,13.57-13.22,27.41-26.72,41.92-40.86-15-14.33-29.12-27.81-43.06-41.13,11.05-11.04,20.71-20.69,30.67-30.64,13.34,13.59,26.92,27.41,40.32,41.07,12.12-12.28,23.61-23.92,35.56-36.03-27.76-40.01-35.88-84.35-21.07-132.11,8.55-27.56,24.47-50.28,46.6-68.3Z"/>
</svg>