<?xml version="1.0" encoding="UTF-8"?>
<svg id="Layer_1" data-name="Layer 1" xmlns="http://www.w3.org/2000/svg" viewBox="0 0 540 540">
  <defs>
    <style>
      .cls-1 {
        fill: #000;
        stroke-width: 0px;
      }
    </style>
  </defs>
  <path class="cls-1" d="M520.39,270.5c-14.71-10.37-30.68-15.47-47.51-18.08-4.04-.63-3.54-3.34-3.63-6.02-.78-24.3-5.16-47.93-15.05-70.19-30.55-68.8-82.61-110.94-157.4-121.83-105.24-15.32-204.18,55.89-223.1,160.33-13.39,73.89,9.4,136.56,64.47,187.07,20.18,18.5,43.93,32.01,70.43,39.93,4.41,1.32,6.25,3.18,6.12,8.06-.36,13.59-.1,27.19-.12,40.79,0,1.9-.17,3.79-.31,6.83-41.57-8.84-77.55-27.4-108.91-54.67-57.1-49.67-87.18-113.01-87.69-188.37C16.68,106.62,137.42-5.42,278.89.2c156.54,6.22,253.56,143.78,241.5,270.3Z"/>
  <path class="cls-1" d="M304.78,252.74c-.88,14.53-7.58,25.13-20.73,30.78-43.87,18.83-87.93,37.22-131.78,56.09-10.22,4.4-19.27-.95-22.72-7-4.2-7.36-1.94-17.21,5.41-22.79,32.03-24.28,64.05-48.58,96.17-72.74,3.98-3,6-6.2,6.61-11.41,4.73-40.06,9.85-80.08,14.93-120.09,1.14-8.95,8.49-15.71,16.78-15.79,8.51-.08,16.19,7.31,17.37,16.65,5.33,42.28,10.7,84.55,16,126.83.82,6.54,1.33,13.13,1.96,19.47Z"/>
  <path class="cls-1" d="M304.13,378.71c18.18.96,34.8,2.56,50.05,10.17,5.16,2.57,10.24,5.67,14.61,9.4,10.85,9.28,10.97,22.07.61,31.86-11.02,10.41-24.92,14.83-39.32,17.5-20.89,3.88-41.83,3.4-62-3.54-8.81-3.03-17.62-7.51-24.88-13.27-12.26-9.74-11.74-22.93.11-33.21,11.05-9.59,24.5-13.98,38.6-16.42,7.81-1.35,15.77-1.79,22.23-2.49Z"/>
  <path class="cls-1" d="M452.41,341.77c-19.06-.9-36.19-2.71-51.96-10.69-4.12-2.08-8.11-4.63-11.7-7.54-13.21-10.71-13.49-24.99.34-35.01,7.68-5.57,16.71-9.99,25.79-12.77,25.53-7.79,51.33-7.11,76.52,1.74,7.36,2.59,14.57,6.64,20.7,11.47,12.94,10.18,12.6,24.03-.1,34.49-11.11,9.15-24.34,13.5-38.24,15.87-7.62,1.3-15.39,1.77-21.37,2.43Z"/>
  <path class="cls-1" d="M234.11,440.92c7.32,11.5,17.03,17.46,28.02,21.29,29.64,10.35,59.32,10.21,88.86-.64,2-.73,3.97-1.59,5.84-2.6,13.53-7.33,24.53-16.32,21.99-34.51,7.56,10.51,17.9,16.6,29.61,20.28,29.02,9.14,58.04,8.88,86.83-1.1,10.09-3.5,18.79-9.22,25.02-18.34,4.84,11.63.82,26.82-9.15,34.39-12.58,9.55-27.25,13.85-42.62,15.79-23.3,2.95-46.11,1.06-67.73-8.85-9.68-4.44-18.19-10.43-22.95-21.36-.26,2.88-1,5.81-.7,8.62,1.42,13.05-5.43,21.28-15.64,27.62-12.86,7.99-27.2,11.04-42.02,12.47-18.38,1.77-36.56.69-54.03-5.43-7.02-2.46-13.75-6.28-19.95-10.47-8.04-5.43-12.11-13.37-11.42-23.44.28-4.04.05-8.12.05-13.72Z"/>
  <path class="cls-1" d="M377.67,490.56c-.21,2.95-.86,5.94-.57,8.84,1.28,13.02-5.44,21.32-15.84,27.49-11.4,6.76-24.01,10.04-36.96,11.77-19.27,2.58-38.46,1.63-56.98-4.58-7.45-2.5-14.74-6.07-21.36-10.31-8.36-5.35-12.53-13.52-11.89-23.8.25-4.04.04-8.1.04-12.04,25.83,27.77,58.79,29.16,92.94,25.09,8.75-1.04,17.58-3.62,25.71-7.05,15.86-6.7,28.73-16.3,25.56-37.41,15.71,20.58,37.79,25.39,60.59,27.59,16.06,1.55,32.19.41,47.81-4.49,13.28-4.17,25.79-9.53,34.25-22.01,3.35,22.93-2.03,33.35-21.98,42.58-17.82,8.25-36.68,10.64-56.16,9.55-13.28-.74-26.19-2.99-38.46-8.24-11.09-4.74-21.11-10.81-26.7-22.98Z"/>
  <path class="cls-1" d="M520.82,334.37c2.34,21.74,1.21,29.54-17.62,40.21-19.08,10.82-40.21,12.4-61.58,11.38-13.83-.66-27.46-2.85-40.04-9.07-4.31-2.13-8.43-4.81-12.27-7.71-7.44-5.62-11.28-13.09-10.74-22.65.24-4.17.04-8.37.04-13.7,10.84,15.84,26.35,21.81,42.84,25.39,21.95,4.77,43.95,4.25,65.64-2.06,13.27-3.86,25.14-10,33.73-21.8Z"/>
  <path class="cls-1" d="M379.06,379.16c16.36,21.2,39.9,25.74,64.24,26.88,12.46.58,25.22-1.01,37.55-3.24,15.67-2.84,29.97-9.21,39.99-23.27,2.43,22.01,1.14,31.75-19.92,41.24-33.59,15.14-67.94,14.72-101.67.02-17.95-7.82-22.48-18.41-20.19-41.63Z"/>
</svg>