<?xml version="1.0" encoding="UTF-8"?>
<svg id="Layer_1" data-name="Layer 1" xmlns="http://www.w3.org/2000/svg" viewBox="0 0 540 540">
  <defs>
    <style>
      .cls-1 {
        fill: #000;
        stroke-width: 0px;
      }
    </style>
  </defs>
  <path class="cls-1" d="M270.02,472.48c-58.95,0-117.9.11-176.85-.04-45.52-.11-82.2-29.35-91.28-72.77-1.43-6.86-1.76-14.04-1.78-21.08C-.02,312.75-.03,246.91.06,181.07c.07-50.58,40.57-90.97,91.04-90.99,42.81-.02,85.61-.08,128.42.04,3.8.01,5.32-.89,5.97-4.85,1.67-10.1,9.08-17.1,19.37-17.41,16.67-.5,33.37-.48,50.04-.03,10.4.28,17.7,7.28,19.55,17.91.62,3.52,1.93,4.34,5.25,4.34,42.44-.08,84.89.15,127.33-.04,51.94-.24,92.91,40.14,92.92,92,.02,65.84.1,131.69-.03,197.53-.08,39.68-22.38,72.57-58.43,86.93-12.19,4.86-24.92,6.04-37.9,6.03-57.86-.05-115.72-.02-173.58-.03ZM269.22,427.4v.05c60.02,0,120.05.02,180.07,0,25.06-.01,45.36-20.17,45.4-45.26.08-64.92.07-129.84.02-194.76,0-5.42.11-10.98-.97-16.24-4.29-21.03-21.95-35.81-43.86-35.98-43.52-.34-87.04-.06-130.56-.19-3.72-.01-4.37,1.65-4.95,4.73-1.91,10.12-8.92,17.16-18.76,17.45-17.03.5-34.09.52-51.11,0-10-.3-17.29-7.37-18.94-17.21-.64-3.8-1.91-5.03-5.87-5.02-42.25.14-84.5.01-126.76.07-28.66.04-47.83,19.14-47.86,47.77-.07,65.83.01,131.66-.04,197.48-.02,27.18,19.66,47.1,46.86,47.12,59.12.03,118.23,0,177.35,0Z"/>
  <path class="cls-1" d="M321.45,305.36c-36.2-31.79-28.59-72.81-7.78-94.63,23.61-24.76,63.93-25.94,89.58-2.88,21.69,19.5,33.65,64.13-4.81,97.77,2.6.67,4.8,1.19,6.97,1.8,16.31,4.57,31.32,11.59,43.14,24.09,9.75,10.31,14.89,22.4,11.44,36.77-3.68,15.32-16.7,25.45-32.54,25.48-44.43.09-88.87-.03-133.3.02-14.38.02-25.39-5.88-31.89-18.74-6.52-12.9-4.33-25.47,3.72-36.97,10.21-14.58,24.97-22.83,41.41-28.47,4.4-1.51,8.91-2.69,14.06-4.23Z"/>
  <path class="cls-1" d="M163.61,225.06c20.31,0,40.61-.14,60.92.05,11.5.11,19.14,5.7,21.84,15.25,4.48,15.84-5.03,29.15-21.52,29.5-16.13.34-32.27.12-48.41.13-24.48.02-48.95.14-73.43,0-16-.09-25.45-9.96-24.2-24.78.91-10.75,8.25-18.89,19.01-19.74,9.56-.75,19.2-.45,28.8-.5,12.33-.07,24.66-.02,36.99-.02,0,.03,0,.07,0,.1Z"/>
  <path class="cls-1" d="M146.12,348.76c-14.85,0-29.7.14-44.55-.04-16.88-.21-26.98-14.92-21.39-30.84,3.13-8.93,10.51-14.06,21-14.12,21.37-.13,42.74-.09,64.1-.1,8.51,0,17.03-.1,25.53.1,14.1.33,22.86,9.19,22.83,22.84-.03,13.28-9.34,22.1-23.52,22.16-14.67.06-29.34.01-44.01.01Z"/>
</svg>