<?xml version="1.0" encoding="UTF-8"?>
<svg id="Layer_1" data-name="Layer 1" xmlns="http://www.w3.org/2000/svg" viewBox="0 0 540 540">
  <defs>
    <style>
      .cls-1 {
        fill: #000;
        stroke-width: 0px;
      }
    </style>
  </defs>
  <path class="cls-1" d="M426.64,271.06h.07c0-68.51-.08-137.02.07-205.53.04-13.55-1.22-26.62-9.14-38.11C405.16,9.29,387.65.34,365.81.3,303.14.16,240.47.85,177.81,0c-32.65-.44-66.14,21.84-64.56,64.56,1.05,27.97.28,56.02.28,84.03-.02,108.81-.08,217.62-.02,326.42,0,6.42.07,13,1.39,19.23,5.67,26.76,29.82,45.62,58.59,45.68,64.48.16,128.97.02,193.45.06,31.25.02,60.11-25.09,59.85-59.15-.51-69.93-.16-139.84-.16-209.77ZM229.9,35.14h80.21c1.44,0,2.75.58,3.69,1.52s1.52,2.25,1.52,3.69c0,2.88-2.33,5.21-5.21,5.21h-80.21c-1.44,0-2.75-.58-3.69-1.52s-1.52-2.25-1.52-3.69c0-2.88,2.33-5.21,5.21-5.21ZM264.35,519.88c-11.61-2.49-20.32-12.58-21.08-24.43-1.05-16.33,12.09-29.61,28.37-28.72,11.83.64,22.01,9.2,24.7,20.74,4.46,19.17-12.7,36.54-31.99,32.41ZM388.98,447.54c-79.58.01-159.15.01-238.73,0-10.38,0-13.01-2.72-13.01-13.41,0-110.4.01-220.81.02-331.21,0-8.57,2.93-11.59,11.65-11.59,80.99-.02,161.98-.02,242.98,0,8.19,0,11.21,3.18,11.21,11.44v167.41c.02,54.41.01,108.82.02,163.23,0,7.8-6.33,14.13-14.14,14.13Z"/>
</svg>