<?xml version="1.0" encoding="UTF-8"?>
<svg id="Layer_1" data-name="Layer 1" xmlns="http://www.w3.org/2000/svg" viewBox="0 0 540 540">
  <defs>
    <style>
      .cls-1 {
        fill: #000;
        stroke-width: 0px;
      }
    </style>
  </defs>
  <path class="cls-1" d="M166.97,226.52c10.85-4.8,21.5-10.11,32.59-14.29,26.65-10.05,54.15-17.01,82.31-21.38,1.72-.27,3.43-.56,5.13-.93,7.27-1.59,11.77-7.52,10.78-14.16-1.04-7.03-7.09-11.84-14.71-10.69-11.64,1.75-23.27,3.8-34.77,6.33-30.47,6.71-60.09,16-87.71,30.81-14.6,7.82-27.9,17.36-37.57,31.17-1.98,2.83-3.49,6-5.22,9.01-1.89,3.29-1.69,6.07.51,9.55,6.16,9.73,4.11,21.49-3.94,29.72-1.85,1.89-3.35,5.22-3.2,7.79,1.62,29.01,1.62,57.93-3.53,86.64-3.01,16.81-7.59,33.11-16.44,47.95-13.82,23.18-34.42,29.57-58.94,18.2-10.7-4.96-24.89-15.87-32.26-24.95,1.57-1.32,3.16-2.65,4.74-3.97,37.42-31.15,64.38-69.03,75.45-117.14,1.69-7.35,2.46-13.82-2.6-21.11-7.48-10.78-1.93-25.56,9.88-32.08,2.77-1.53,5.24-4.27,6.9-7.03,4.87-8.08,9.25-16.46,14.19-25.36-1.9-.65-3.97-1.41-6.07-2.05-22.54-6.88-45.06-13.8-67.64-20.55-5.41-1.62-9.78-3.96-10.08-10.28-.25-5.27,2.96-8.63,10.17-10.85,55.57-17.03,111.15-34.04,166.73-51.05,24.92-7.63,49.81-15.4,74.82-22.74,3.63-1.07,8.14-1.03,11.76.07,80.19,24.35,160.31,48.9,240.43,73.48,2.72.84,5.7,1.8,7.78,3.6,6.3,5.46,3.83,14.4-4.65,17.04-20.11,6.24-40.27,12.3-60.4,18.47-59.99,18.39-119.95,36.91-180.03,55.01-5.22,1.57-11.66,1.91-16.82.4-34.65-10.14-69.11-20.94-103.63-31.54-1.23-.38-2.38-.99-3.57-1.49-.13-.53-.26-1.06-.39-1.59Z"/>
  <path class="cls-1" d="M156.42,251.26c16.69,5.12,31.41,9.66,46.15,14.16,22.53,6.89,45.1,13.66,67.59,20.68,8.45,2.64,16.6,2.39,25.01-.22,34.66-10.76,69.39-21.34,104.09-31.99,7.65-2.35,8-2.45,10.35,5.39,4.1,13.68,7.89,27.45,11.49,41.27,3.77,14.49-.69,27.01-10.01,38.19-17.83,21.39-40.63,35.65-66.53,44.76-59.25,20.86-115.32,13.47-167.37-21.45-9.29-6.23-17.11-14.99-24.56-23.51-8.3-9.49-12.74-21.07-9.84-33.85,4-17.62,8.89-35.04,13.63-53.45Z"/>
</svg>