<?xml version="1.0" encoding="UTF-8"?>
<svg id="Layer_1" data-name="Layer 1" xmlns="http://www.w3.org/2000/svg" viewBox="0 0 540 540">
  <defs>
    <style>
      .cls-1 {
        fill: #000;
        stroke-width: 0px;
      }
    </style>
  </defs>
  <path class="cls-1" d="M.18,241.03C9.4,117.09,117.39,9.44,240.75.45c6.13-.45,11.37,4.32,11.37,10.47v.19c0,76.28-.19,152.57.23,228.84.05,10.08-2.74,12.75-12.75,12.69-76.28-.41-152.56-.22-228.84-.22h-.11c-6.15,0-10.93-5.26-10.47-11.39Z"/>
  <path class="cls-1" d="M484.78,433.34c-72.31,94.72-197.73,131.57-309.49,90.37C64.02,482.69,7.44,382.33.05,298.89c-.61-6.89,4.81-12.83,11.73-12.83h.7c82.89,0,165.78.15,248.67-.27,7.86-.04,15.58-2.1,22.4-6,72.27-41.25,144.26-83,216.33-124.59.04-.02.07-.04.11-.06,5.88-3.38,13.39-.94,16.35,5.17,35.13,72.44,36.19,184.27-31.56,273.03Z"/>
  <path class="cls-1" d="M297.07-.34c79.7,9.78,142.92,46.31,191.71,110.83,3.39,4.48,2.06,10.93-2.8,13.74-60.86,35.14-121.22,69.99-182.49,105.37-7.5,4.33-16.9-1.07-16.9-9.74V8.95c0-5.61,4.91-9.97,10.47-9.29ZM444.07,109.16c-34.96-37.01-75.21-60.46-123.35-71.15v142.37c41.51-23.97,81.65-47.14,123.35-71.22Z"/>
</svg>