<?xml version="1.0" encoding="UTF-8"?>
<svg id="Layer_1" data-name="Layer 1" xmlns="http://www.w3.org/2000/svg" viewBox="0 0 400 400">
  <defs>
    <style>
      .cls-1 {
        fill: #000;
        stroke-width: 0px;
      }
    </style>
  </defs>
  <path class="cls-1" d="M397.13,383.57c-4.76-71.84-68.7-86.55-127.84-98.51-7.9-1.44-6.13-9.49-8.51-15.58,11.72-3.62,83.12-14.7,68.56-33.65-26.17-28.17-29.5-68.94-30.59-105.55-1.17-36.72.13-109.08-49.99-110.83-3.01.06-5.25-.79-7.42-2.87-8.12-7.79-17.85-12.18-29.1-13.38-19-1.35-36.55,2.19-52.94,12.06-89.07,51.69-34.62,142.72-81.99,213.02-5.55,6.52-15.07,14.78-3.2,20.69,20.44,10.73,42.82,15.08,65.07,20.42-2.18,5.49-.69,14.17-8,15.39-53.83,11.53-117.92,24.18-127.05,88.82-.37,8.12-4.99,18.31,4.28,23.47,0,0,383.19,0,383.19,0,6.21-3.46,5.93-8.43,5.51-13.49Z"/>
</svg>